STARTFONT 2.1
FONT -Monotype-Book Antiqua-Bold-I-Normal--25-180-100-100-P-126-iso8859-2
SIZE 18 100 100
FONTBOUNDINGBOX 31 31 -4 -8

STARTPROPERTIES 24
FOUNDRY "Monotype"
FAMILY_NAME "Book Antiqua"
WEIGHT_NAME "Bold"
SLANT "I"
SETWIDTH_NAME "Normal"
ADD_STYLE_NAME ""
PIXEL_SIZE 25
POINT_SIZE 180
RESOLUTION_X 100
RESOLUTION_Y 100
SPACING "P"
AVERAGE_WIDTH 126
CHARSET_REGISTRY "iso8859"
CHARSET_ENCODING "2"
FACE_NAME "Book Antiqua Bold Italic ISO Latin2"
_DEC_DEVICE_FONTNAMES "PS=bookantiqua-bit-lat2"
COPYRIGHT "Copyright (c) 1993 Monotype Typography Ltd."
CAP_HEIGHT 21
X_HEIGHT 14
WEIGHT 10
QUAD_WIDTH 15
DEFAULT_CHAR 160
FONT_DESCENT 8
FONT_ASCENT 23
ENDPROPERTIES

CHARS 191

STARTCHAR space
ENCODING 32
SWIDTH 250 0
DWIDTH 6 0
BBX 0 0 0 0
BITMAP
ENDCHAR

STARTCHAR exclam
ENCODING 33
SWIDTH 333 0
DWIDTH 8 0
BBX 6 18 1 0
BITMAP
04
3C
38
38
38
38
30
30
30
20
20
60
40
00
60
E0
E0
C0
ENDCHAR

STARTCHAR quotedbl
ENCODING 34
SWIDTH 500 0
DWIDTH 13 0
BBX 9 8 3 9
BITMAP
7300
F780
F780
6300
6300
6300
6300
2100
ENDCHAR

STARTCHAR numbersign
ENCODING 35
SWIDTH 606 0
DWIDTH 15 0
BBX 14 17 1 0
BITMAP
0C30
0C30
0C30
0C20
0C60
7FFC
7FFC
1860
1860
1840
FFF8
FFF8
18C0
30C0
30C0
30C0
3180
ENDCHAR

STARTCHAR dollar
ENCODING 36
SWIDTH 500 0
DWIDTH 13 0
BBX 12 22 0 -3
BITMAP
0100
0100
07C0
1D70
3320
2220
6220
6200
7200
7F00
3FC0
0FE0
05E0
0460
8460
8C60
88C0
E980
7F00
0800
0800
1000
ENDCHAR

STARTCHAR percent
ENCODING 37
SWIDTH 889 0
DWIDTH 22 0
BBX 19 17 2 0
BITMAP
3C0300
660600
660400
E60800
C61800
C61000
CE21C0
CC6260
484660
70C660
018C60
010C60
030C60
060CE0
040CC0
0C0480
180700
ENDCHAR

STARTCHAR ampersand
ENCODING 38
SWIDTH 833 0
DWIDTH 21 0
BBX 19 17 2 0
BITMAP
03F000
063000
0C1000
181000
180040
1C0020
178060
0F03E0
383F80
707C00
E08E00
E08600
E00600
E00E00
700C00
7C3800
1FC000
ENDCHAR

STARTCHAR quoteright
ENCODING 39
SWIDTH 278 0
DWIDTH 7 0
BBX 5 7 2 10
BITMAP
38
30
70
60
60
C0
80
ENDCHAR

STARTCHAR parenleft
ENCODING 40
SWIDTH 333 0
DWIDTH 8 0
BBX 8 21 1 -3
BITMAP
03
06
0C
18
38
30
70
70
E0
E0
E0
E0
E0
E0
60
60
60
30
30
10
08
ENDCHAR

STARTCHAR parenright
ENCODING 41
SWIDTH 333 0
DWIDTH 8 0
BBX 8 21 -1 -3
BITMAP
10
08
0C
04
06
06
07
07
07
07
07
07
07
0E
0E
0C
1C
18
30
60
C0
ENDCHAR

STARTCHAR asterisk
ENCODING 42
SWIDTH 444 0
DWIDTH 11 0
BBX 9 9 2 8
BITMAP
4600
6400
EC00
0980
1F80
FC00
6C00
0E00
0400
ENDCHAR

STARTCHAR plus
ENCODING 43
SWIDTH 606 0
DWIDTH 15 0
BBX 12 12 2 2
BITMAP
0600
0600
0600
0600
0600
FFF0
FFF0
0600
0600
0600
0600
0600
ENDCHAR

STARTCHAR comma
ENCODING 44
SWIDTH 250 0
DWIDTH 6 0
BBX 6 8 -1 -4
BITMAP
04
38
38
30
70
60
C0
80
ENDCHAR

STARTCHAR minus
ENCODING 45
SWIDTH 606 0
DWIDTH 15 0
BBX 13 2 1 7
BITMAP
FFF8
FFF8
ENDCHAR

STARTCHAR period
ENCODING 46
SWIDTH 250 0
DWIDTH 6 0
BBX 3 4 1 0
BITMAP
60
E0
E0
E0
ENDCHAR

STARTCHAR slash
ENCODING 47
SWIDTH 315 0
DWIDTH 8 0
BBX 15 21 -4 -3
BITMAP
000E
000C
001C
0038
0038
0070
0060
00E0
01C0
0180
0380
0300
0700
0E00
0C00
1C00
1800
3800
7000
6000
E000
ENDCHAR

STARTCHAR zero
ENCODING 48
SWIDTH 500 0
DWIDTH 13 0
BBX 11 17 1 0
BITMAP
0F80
18C0
38C0
38E0
70E0
70E0
70E0
F0E0
F0E0
E1E0
E1C0
E1C0
E1C0
E380
6380
6300
3C00
ENDCHAR

STARTCHAR one
ENCODING 49
SWIDTH 500 0
DWIDTH 13 0
BBX 9 17 1 0
BITMAP
0100
0700
3F00
E700
8700
0E00
0E00
0E00
0E00
0E00
0E00
1C00
1C00
1C00
1C00
3C00
FF80
ENDCHAR

STARTCHAR two
ENCODING 50
SWIDTH 500 0
DWIDTH 13 0
BBX 11 17 0 0
BITMAP
0F80
1FC0
31E0
20E0
40E0
00E0
00E0
01C0
0180
0300
0600
0C00
0800
1000
3FE0
FFE0
FFE0
ENDCHAR

STARTCHAR three
ENCODING 51
SWIDTH 500 0
DWIDTH 13 0
BBX 11 17 0 0
BITMAP
0F80
1FC0
31E0
20E0
00E0
00C0
0180
1F00
01C0
00E0
00E0
00E0
40E0
41C0
C1C0
E380
7E00
ENDCHAR

STARTCHAR four
ENCODING 52
SWIDTH 500 0
DWIDTH 13 0
BBX 12 17 0 0
BITMAP
0020
01E0
01E0
02E0
05C0
0DC0
09C0
11C0
31C0
21C0
4380
FFF0
FFF0
0380
0380
0780
3FE0
ENDCHAR

STARTCHAR five
ENCODING 53
SWIDTH 500 0
DWIDTH 13 0
BBX 12 17 0 0
BITMAP
1030
1FE0
1FE0
1000
1000
2000
2000
2F80
31C0
20E0
00E0
00E0
40E0
41C0
C1C0
E380
7E00
ENDCHAR

STARTCHAR six
ENCODING 54
SWIDTH 500 0
DWIDTH 13 0
BBX 11 17 0 0
BITMAP
03E0
0620
0C00
1800
3800
7000
7380
E7C0
F1E0
F0E0
E0E0
E0E0
E0E0
E0C0
61C0
7300
3E00
ENDCHAR

STARTCHAR seven
ENCODING 55
SWIDTH 500 0
DWIDTH 13 0
BBX 12 17 2 0
BITMAP
FFF0
FFE0
FFE0
0040
0080
0180
0100
0300
0600
0600
0C00
1800
1800
3000
7000
6000
E000
ENDCHAR

STARTCHAR eight
ENCODING 56
SWIDTH 500 0
DWIDTH 13 0
BBX 11 17 0 0
BITMAP
07C0
18E0
1060
3060
3060
38C0
3C80
1F00
0F80
33C0
61E0
40E0
C0E0
C0C0
C0C0
6180
3E00
ENDCHAR

STARTCHAR nine
ENCODING 57
SWIDTH 500 0
DWIDTH 13 0
BBX 12 17 0 0
BITMAP
07C0
1CE0
3870
3070
7070
7070
7070
70F0
7870
3F70
1CE0
00E0
00C0
0180
8380
4700
7C00
ENDCHAR

STARTCHAR colon
ENCODING 58
SWIDTH 250 0
DWIDTH 6 0
BBX 4 12 1 0
BITMAP
30
70
70
20
00
00
00
00
60
E0
E0
C0
ENDCHAR

STARTCHAR semicolon
ENCODING 59
SWIDTH 250 0
DWIDTH 6 0
BBX 7 16 -2 -4
BITMAP
06
0E
0E
0C
00
00
00
00
04
1C
38
38
30
30
60
C0
ENDCHAR

STARTCHAR less
ENCODING 60
SWIDTH 606 0
DWIDTH 15 0
BBX 13 13 1 2
BITMAP
0018
0078
01F0
07C0
3F00
FC00
F000
FC00
3F00
07C0
01F0
0078
0018
ENDCHAR

STARTCHAR equal
ENCODING 61
SWIDTH 606 0
DWIDTH 15 0
BBX 13 7 1 5
BITMAP
FFF8
FFF8
0000
0000
0000
FFF8
FFF8
ENDCHAR

STARTCHAR greater
ENCODING 62
SWIDTH 606 0
DWIDTH 15 0
BBX 13 13 1 2
BITMAP
C000
F000
7C00
1F00
07E0
01F8
0038
01F8
07E0
1F80
7C00
F000
C000
ENDCHAR

STARTCHAR question
ENCODING 63
SWIDTH 444 0
DWIDTH 11 0
BBX 9 17 2 0
BITMAP
3E00
7F00
4780
8380
0380
0780
0700
0C00
1800
3000
2000
1000
0000
2000
7000
7000
6000
ENDCHAR

STARTCHAR at
ENCODING 64
SWIDTH 833 0
DWIDTH 21 0
BBX 18 19 2 -2
BITMAP
03F800
0C0600
180100
300100
60D880
41A880
C33880
863080
863080
8E7080
8E7100
8EA200
CF6640
463880
400080
200100
100200
0E1C00
01E000
ENDCHAR

STARTCHAR A
ENCODING 65
SWIDTH 722 0
DWIDTH 18 0
BBX 18 17 -1 0
BITMAP
001800
003C00
003C00
005C00
00DC00
009C00
011C00
011E00
020E00
07FE00
040E00
0C0E00
180E00
100F00
300F00
300F00
FC3FC0
ENDCHAR

STARTCHAR B
ENCODING 66
SWIDTH 667 0
DWIDTH 17 0
BBX 15 17 1 0
BITMAP
7FF8
0E1E
0E0E
0E0E
1E0E
1C1E
1C1C
1CE0
1FF8
183C
381C
381C
381C
381C
3838
7070
FFC0
ENDCHAR

STARTCHAR C
ENCODING 67
SWIDTH 685 0
DWIDTH 17 0
BBX 15 17 2 0
BITMAP
00F8
07FE
0C06
1802
3802
7000
7000
F000
E000
E000
E000
E000
F000
F004
780C
3FF0
0F80
ENDCHAR

STARTCHAR D
ENCODING 68
SWIDTH 778 0
DWIDTH 19 0
BBX 18 17 0 0
BITMAP
7FFC00
0E0F00
0E0380
1E03C0
1E01C0
1C01C0
1C01C0
1C01C0
1C01C0
3C03C0
3C03C0
380380
380780
380700
380E00
781800
FFE000
ENDCHAR

STARTCHAR E
ENCODING 69
SWIDTH 611 0
DWIDTH 15 0
BBX 15 17 0 0
BITMAP
3FFE
0E06
0E04
0E04
0E00
0E00
1E00
1C00
1FF0
1C00
1C00
1C00
3C00
3C04
3808
3818
FFF8
ENDCHAR

STARTCHAR F
ENCODING 70
SWIDTH 556 0
DWIDTH 14 0
BBX 14 17 0 0
BITMAP
3FFC
0E04
0E04
0E04
0E00
0E00
1E00
1C00
1FF0
1C00
1C00
1C00
3C00
3800
3800
3800
FF00
ENDCHAR

STARTCHAR G
ENCODING 71
SWIDTH 778 0
DWIDTH 19 0
BBX 17 17 2 0
BITMAP
00FC00
03FF00
0E0300
180300
380200
700000
700000
F00000
E00000
E00000
E07F80
E00E00
E00E00
F00E00
701C00
3C1C00
0FE000
ENDCHAR

STARTCHAR H
ENCODING 72
SWIDTH 778 0
DWIDTH 19 0
BBX 20 17 0 0
BITMAP
3FCFF0
0F03C0
0E03C0
0E0380
0E0380
0E0380
1C0380
1FFF80
1C0780
1C0700
1C0700
1C0700
3C0700
380700
380F00
380F00
FE3FC0
ENDCHAR

STARTCHAR I
ENCODING 73
SWIDTH 389 0
DWIDTH 10 0
BBX 10 17 0 0
BITMAP
3FC0
0F00
0F00
0E00
0E00
0E00
0E00
0E00
1E00
1C00
1C00
1C00
1C00
1C00
3C00
3C00
FF00
ENDCHAR

STARTCHAR J
ENCODING 74
SWIDTH 389 0
DWIDTH 10 0
BBX 11 22 -1 -5
BITMAP
1FE0
0380
0380
0780
0700
0700
0700
0700
0700
0F00
0E00
0E00
0E00
0E00
0E00
1E00
1C00
1C00
1C00
1800
3000
E000
ENDCHAR

STARTCHAR K
ENCODING 75
SWIDTH 722 0
DWIDTH 18 0
BBX 19 17 0 0
BITMAP
3FC1E0
0F0380
0F0600
0F0C00
0E1800
0E3000
0E6000
0EC000
1EC000
1EE000
1CF000
1C7800
1C3800
1C3C00
3C1E00
3C0F00
FF0F80
ENDCHAR

STARTCHAR L
ENCODING 76
SWIDTH 611 0
DWIDTH 15 0
BBX 14 17 0 0
BITMAP
3FC0
0F00
0E00
0E00
0E00
0E00
1E00
1C00
1C00
1C00
1C00
1C00
3C00
3804
380C
3818
FFF8
ENDCHAR

STARTCHAR M
ENCODING 77
SWIDTH 944 0
DWIDTH 24 0
BBX 25 17 -1 0
BITMAP
1F801F80
03801E00
07803E00
05C02E00
05C05E00
05C0DC00
0DC09C00
08E19C00
08E11C00
08E21C00
18F63C00
10743800
10783800
10783800
30703800
30307800
FC21FE00
ENDCHAR

STARTCHAR N
ENCODING 78
SWIDTH 778 0
DWIDTH 19 0
BBX 20 17 0 0
BITMAP
7E03F0
0F00C0
0F00C0
0F80C0
0B8080
0BC080
19E080
19E080
10F180
107180
107900
103D00
303D00
301F00
200F00
300F00
FC0600
ENDCHAR

STARTCHAR O
ENCODING 79
SWIDTH 833 0
DWIDTH 21 0
BBX 17 17 2 0
BITMAP
03F800
0E0E00
1C0700
380780
700380
700380
F00380
F00380
E00380
E00780
E00780
E00700
E00700
F00E00
701C00
3C3800
0FE000
ENDCHAR

STARTCHAR P
ENCODING 80
SWIDTH 667 0
DWIDTH 17 0
BBX 16 17 0 0
BITMAP
3FFC
0F0E
0F0F
0E07
0E07
0E07
0E0F
1E0E
1C1C
1DF0
1C00
1C00
1C00
3C00
3C00
3C00
FF00
ENDCHAR

STARTCHAR Q
ENCODING 81
SWIDTH 833 0
DWIDTH 21 0
BBX 17 22 2 -5
BITMAP
03F800
0E0E00
1C0700
380780
700380
700380
F00380
F00380
E00380
E00780
E00780
E00700
E00700
700E00
701C00
383000
07C000
1F0000
23C080
21F100
207F00
001E00
ENDCHAR

STARTCHAR R
ENCODING 82
SWIDTH 722 0
DWIDTH 18 0
BBX 17 17 0 0
BITMAP
3FFC00
0F0F00
0F0700
0E0700
0E0700
0E0F00
0E0E00
0F3800
1EE000
1CF000
1C7800
1C3800
1C3C00
1C1C00
3C1E00
3C0F00
FF0F80
ENDCHAR

STARTCHAR S
ENCODING 83
SWIDTH 556 0
DWIDTH 14 0
BBX 12 17 0 0
BITMAP
07F0
0C30
1810
3010
3000
3000
3800
3F80
1FE0
07F0
00F0
0070
4070
4060
4040
F180
7F00
ENDCHAR

STARTCHAR T
ENCODING 84
SWIDTH 611 0
DWIDTH 15 0
BBX 15 17 1 0
BITMAP
7FFE
C382
8382
8382
0380
0380
0780
0700
0700
0700
0700
0700
0F00
0E00
0E00
0E00
7FC0
ENDCHAR

STARTCHAR U
ENCODING 85
SWIDTH 778 0
DWIDTH 19 0
BBX 19 17 1 0
BITMAP
FC1FE0
1C0780
1C0780
3C0700
380700
380700
380700
380F00
380E00
780E00
700E00
700E00
701E00
703E00
786C00
3F9E00
1F1F80
ENDCHAR

STARTCHAR V
ENCODING 86
SWIDTH 667 0
DWIDTH 17 0
BBX 17 17 2 0
BITMAP
FE1F80
380600
380400
380C00
380800
3C1800
1C1000
1C3000
1C2000
1C6000
1C4000
1E8000
0F8000
0F0000
0F0000
0E0000
0E0000
ENDCHAR

STARTCHAR W
ENCODING 87
SWIDTH 1000 0
DWIDTH 25 0
BBX 26 17 1 0
BITMAP
FF040FC0
3C0E0300
3C0E0300
1C1E0200
1C1E0600
1C370400
1C270C00
1C670800
1C470800
1CC39800
1C839000
1F83B000
0F03E000
0F01E000
0E01E000
0E01C000
0C01C000
ENDCHAR

STARTCHAR X
ENCODING 88
SWIDTH 722 0
DWIDTH 18 0
BBX 20 17 -1 0
BITMAP
3FE7F0
0781C0
078180
038300
03C600
01EC00
00F800
00F000
007000
00F800
01B800
033C00
061C00
0C1E00
180E00
380F00
FE3FC0
ENDCHAR

STARTCHAR Y
ENCODING 89
SWIDTH 611 0
DWIDTH 15 0
BBX 15 17 1 0
BITMAP
7002
F80E
3C0C
1C18
1E30
0E20
0E60
0E40
0780
0780
0780
0700
0700
0700
0F00
0F00
3FC0
ENDCHAR

STARTCHAR Z
ENCODING 90
SWIDTH 667 0
DWIDTH 17 0
BBX 17 17 0 0
BITMAP
1FFF80
100F00
101E00
203C00
003C00
007800
00F000
01E000
03C000
03C000
078000
0F0000
1E0000
1E0100
3C0200
780600
FFFE00
ENDCHAR

STARTCHAR bracketleft
ENCODING 91
SWIDTH 333 0
DWIDTH 8 0
BBX 8 21 0 -3
BITMAP
1F
18
38
38
38
38
30
30
30
30
70
70
70
60
60
60
E0
E0
E0
E0
FC
ENDCHAR

STARTCHAR backslash
ENCODING 92
SWIDTH 606 0
DWIDTH 15 0
BBX 9 21 3 -3
BITMAP
E000
E000
6000
7000
7000
3000
3800
3800
3800
1800
1C00
1C00
0C00
0E00
0E00
0E00
0600
0700
0700
0300
0380
ENDCHAR

STARTCHAR bracketright
ENCODING 93
SWIDTH 333 0
DWIDTH 8 0
BBX 9 21 0 -3
BITMAP
1F80
0300
0700
0700
0700
0700
0700
0600
0600
0600
0E00
0E00
0E00
0E00
0C00
0C00
0C00
1C00
1C00
1C00
FC00
ENDCHAR

STARTCHAR asciicircum
ENCODING 94
SWIDTH 606 0
DWIDTH 15 0
BBX 12 10 2 7
BITMAP
0600
0F00
0F00
1D80
1980
39C0
30C0
70E0
6060
E070
ENDCHAR

STARTCHAR underscore
ENCODING 95
SWIDTH 500 0
DWIDTH 13 0
BBX 13 1 0 -3
BITMAP
FFF8
ENDCHAR

STARTCHAR quoteleft
ENCODING 96
SWIDTH 278 0
DWIDTH 7 0
BBX 5 7 2 10
BITMAP
18
30
30
70
60
E0
80
ENDCHAR

STARTCHAR a
ENCODING 97
SWIDTH 556 0
DWIDTH 14 0
BBX 12 12 1 0
BITMAP
07F0
0860
18E0
30E0
70E0
71C0
6140
E2C0
E5C0
E9D0
F1E0
6180
ENDCHAR

STARTCHAR b
ENCODING 98
SWIDTH 537 0
DWIDTH 13 0
BBX 11 19 1 0
BITMAP
0400
F800
3800
3800
3800
3800
3000
31C0
73E0
74E0
68E0
70E0
70E0
60C0
E1C0
E180
E380
E200
7C00
ENDCHAR

STARTCHAR c
ENCODING 99
SWIDTH 444 0
DWIDTH 11 0
BBX 10 12 1 0
BITMAP
03C0
0FC0
3840
7040
7000
6000
E000
E000
E080
E180
7E00
3800
ENDCHAR

STARTCHAR d
ENCODING 100
SWIDTH 556 0
DWIDTH 14 0
BBX 13 19 1 0
BITMAP
0008
00F8
0038
0038
0070
0070
0070
07F0
1860
3860
30E0
70E0
70E0
6140
E2C0
E5C0
EDD0
F1E0
6180
ENDCHAR

STARTCHAR e
ENCODING 101
SWIDTH 444 0
DWIDTH 11 0
BBX 10 12 1 0
BITMAP
07C0
18C0
30C0
71C0
7180
6E00
F000
E000
E000
E180
7E00
3800
ENDCHAR

STARTCHAR f
ENCODING 102
SWIDTH 333 0
DWIDTH 8 0
BBX 15 25 -4 -7
BITMAP
000E
001E
0026
0060
00E0
00C0
01C0
07F8
01C0
01C0
0380
0380
0380
0380
0300
0700
0700
0600
0600
0600
0C00
0C00
4800
7000
E000
ENDCHAR

STARTCHAR g
ENCODING 103
SWIDTH 500 0
DWIDTH 13 0
BBX 15 19 -2 -7
BITMAP
01F6
063E
0C38
0C38
1C38
1C30
1C30
0C60
0780
0300
0700
0780
0DC0
31E0
E070
C070
E060
70C0
3F80
ENDCHAR

STARTCHAR h
ENCODING 104
SWIDTH 556 0
DWIDTH 14 0
BBX 13 19 1 0
BITMAP
0200
7C00
1C00
1C00
1C00
1C00
1800
1870
39F0
3B70
3470
3460
38E0
70E0
70C0
71C0
61D8
E1E0
E1C0
ENDCHAR

STARTCHAR i
ENCODING 105
SWIDTH 333 0
DWIDTH 8 0
BBX 7 18 1 0
BITMAP
0E
0E
0E
00
00
00
1C
3C
DC
18
38
38
30
30
70
74
78
60
ENDCHAR

STARTCHAR j
ENCODING 106
SWIDTH 333 0
DWIDTH 8 0
BBX 10 25 -2 -7
BITMAP
01C0
01C0
01C0
0000
0000
0000
0380
0780
1B80
1300
0700
0700
0700
0600
0600
0E00
0E00
0C00
0C00
0C00
1C00
1800
1000
B000
E000
ENDCHAR

STARTCHAR k
ENCODING 107
SWIDTH 556 0
DWIDTH 14 0
BBX 13 19 1 0
BITMAP
0200
7E00
1C00
1C00
1C00
1C00
1800
1838
38F0
3980
3B00
3600
3F00
7B00
7380
6380
63D0
E1E0
E1C0
ENDCHAR

STARTCHAR l
ENCODING 108
SWIDTH 333 0
DWIDTH 8 0
BBX 6 19 2 0
BITMAP
04
7C
1C
1C
18
18
38
38
38
30
70
70
70
60
60
E0
EC
F0
E0
ENDCHAR

STARTCHAR m
ENCODING 109
SWIDTH 833 0
DWIDTH 21 0
BBX 21 12 0 0
BITMAP
1C3870
3CF9F0
DD3B70
1A3470
1A34E0
1C38E0
3870E0
3870E0
3861C0
30E1D8
70E1E0
70E1C0
ENDCHAR

STARTCHAR n
ENCODING 110
SWIDTH 556 0
DWIDTH 14 0
BBX 12 12 1 0
BITMAP
3870
79F0
BB70
3460
3460
38E0
70E0
70C0
71C0
61D0
E1E0
E1C0
ENDCHAR

STARTCHAR o
ENCODING 111
SWIDTH 556 0
DWIDTH 14 0
BBX 12 12 1 0
BITMAP
07C0
18E0
3070
7070
7070
E070
E070
E0E0
E0E0
E0C0
7180
7E00
ENDCHAR

STARTCHAR p
ENCODING 112
SWIDTH 556 0
DWIDTH 14 0
BBX 14 19 -1 -7
BITMAP
0618
1E7C
6E9C
0D1C
0E1C
0E1C
1C18
1C38
1C30
1870
3C40
3F80
3800
3000
7000
7000
7000
F000
4000
ENDCHAR

STARTCHAR q
ENCODING 113
SWIDTH 537 0
DWIDTH 13 0
BBX 12 18 1 -6
BITMAP
07F0
0C70
1860
30E0
70E0
70E0
61E0
E2C0
E3C0
EDC0
F1C0
6180
0180
0380
0380
0380
0300
0700
ENDCHAR

STARTCHAR r
ENCODING 114
SWIDTH 389 0
DWIDTH 10 0
BBX 10 12 1 0
BITMAP
19C0
7B80
BB80
3400
3400
3800
3000
7000
7000
6000
6000
C000
ENDCHAR

STARTCHAR s
ENCODING 115
SWIDTH 444 0
DWIDTH 11 0
BBX 9 12 1 0
BITMAP
0F80
3180
6080
6080
7800
7F00
3F80
0780
8380
8300
E600
FC00
ENDCHAR

STARTCHAR t
ENCODING 116
SWIDTH 389 0
DWIDTH 10 0
BBX 9 17 1 0
BITMAP
0200
0E00
0C00
1C00
1C00
FF80
1C00
1800
3800
3800
3800
3000
3000
7100
7200
7C00
7000
ENDCHAR

STARTCHAR u
ENCODING 117
SWIDTH 556 0
DWIDTH 14 0
BBX 13 12 0 0
BITMAP
1C38
3C30
DC70
1C70
1870
38E0
38A0
31E0
72E0
74E8
78F0
70C0
ENDCHAR

STARTCHAR v
ENCODING 118
SWIDTH 556 0
DWIDTH 14 0
BBX 13 12 0 0
BITMAP
7F30
7E78
C618
0C18
0C18
1810
3830
3820
3860
38C0
1F00
0E00
ENDCHAR

STARTCHAR w
ENCODING 119
SWIDTH 833 0
DWIDTH 21 0
BBX 19 12 1 0
BITMAP
7F18C0
FE39E0
843860
083060
183060
307040
7070C0
70B080
70B180
717300
3E3E00
183800
ENDCHAR

STARTCHAR x
ENCODING 120
SWIDTH 500 0
DWIDTH 13 0
BBX 13 12 0 0
BITMAP
3C38
3E70
4ED0
0680
0700
0700
0700
0700
0B00
93B0
E3C0
C180
ENDCHAR

STARTCHAR y
ENCODING 121
SWIDTH 556 0
DWIDTH 14 0
BBX 14 19 0 -7
BITMAP
1C1C
7C38
DC38
1C38
1C70
1870
3870
38E0
3960
3AE0
3CC0
38C0
01C0
0180
0180
4300
C200
E400
7800
ENDCHAR

STARTCHAR z
ENCODING 122
SWIDTH 500 0
DWIDTH 13 0
BBX 11 12 1 0
BITMAP
3C20
7FC0
4F00
4100
0200
0400
0800
1000
2040
5E40
FFC0
8F80
ENDCHAR

STARTCHAR braceleft
ENCODING 123
SWIDTH 333 0
DWIDTH 8 0
BBX 11 23 0 -5
BITMAP
00E0
0380
0700
0600
0E00
0E00
0E00
0E00
0E00
1C00
3800
C000
6000
3000
3800
3800
7800
7000
F000
E000
E000
6000
3800
ENDCHAR

STARTCHAR bar
ENCODING 124
SWIDTH 606 0
DWIDTH 15 0
BBX 2 22 7 -4
BITMAP
C0
C0
C0
C0
C0
C0
C0
C0
C0
C0
C0
C0
C0
C0
C0
C0
C0
C0
C0
C0
C0
C0
ENDCHAR

STARTCHAR braceright
ENCODING 125
SWIDTH 333 0
DWIDTH 8 0
BBX 11 23 -2 -5
BITMAP
0380
00C0
00E0
00E0
01E0
01C0
03C0
0380
0380
0380
0180
0060
0180
0300
0700
0E00
0E00
0E00
0E00
0E00
1C00
1800
F000
ENDCHAR

STARTCHAR asciitilde
ENCODING 126
SWIDTH 606 0
DWIDTH 15 0
BBX 13 4 1 6
BITMAP
7C08
FF98
C7F8
81F0
ENDCHAR

STARTCHAR space
ENCODING 160
SWIDTH 250 0
DWIDTH 8 0
BBX 0 0 0 0
BITMAP
ENDCHAR

STARTCHAR Aogonek
ENCODING 161
SWIDTH 722 0
DWIDTH 18 0
BBX 18 22 -1 -5
BITMAP
001C00
001C00
003C00
006C00
005E00
00CE00
008E00
010E00
030E00
03FE00
060F00
040F00
080700
180700
100700
300700
FC1DC0
000200
000400
000C00
000C80
000700
ENDCHAR

STARTCHAR breve
ENCODING 162
SWIDTH 333 0
DWIDTH 8 0
BBX 8 4 2 13
BITMAP
C1
43
7E
3C
ENDCHAR

STARTCHAR Lslash
ENCODING 163
SWIDTH 611 0
DWIDTH 15 0
BBX 14 17 0 0
BITMAP
3FC0
0F00
0E00
0E00
0E00
0E20
1EE0
1D80
1F00
1C00
3C00
7C00
5C00
3804
380C
3818
FFF8
ENDCHAR

STARTCHAR currency
ENCODING 164
SWIDTH 606 0
DWIDTH 15 0
BBX 13 13 1 2
BITMAP
4F90
FFF8
7FF0
7070
E038
E038
E038
E038
7038
7070
7FF0
FFF8
4F90
ENDCHAR

STARTCHAR Lcaron
ENCODING 165
SWIDTH 611 0
DWIDTH 15 0
BBX 15 17 0 0
BITMAP
3FCE
0F1C
0E1C
0E18
0E30
0E30
1E20
1C00
1C00
1C00
1C00
1C00
3C00
3804
380C
3818
FFF8
ENDCHAR

STARTCHAR Sacute
ENCODING 166
SWIDTH 556 0
DWIDTH 14 0
BBX 12 23 0 0
BITMAP
0020
00E0
00C0
0180
0200
0000
07F0
0C30
1810
3010
3000
3000
3800
3F80
1FE0
07F0
00F0
0070
4070
4060
4040
F180
7F00
ENDCHAR

STARTCHAR section
ENCODING 167
SWIDTH 556 0
DWIDTH 14 0
BBX 11 21 1 -4
BITMAP
07C0
18E0
1020
3020
3800
1C00
1F00
37C0
61E0
60E0
7060
7860
3C40
1F80
0780
01C0
40C0
40C0
C080
E300
3E00
ENDCHAR

STARTCHAR dieresis
ENCODING 168
SWIDTH 333 0
DWIDTH 8 0
BBX 8 3 2 13
BITMAP
E7
E7
E7
ENDCHAR

STARTCHAR Scaron
ENCODING 169
SWIDTH 556 0
DWIDTH 14 0
BBX 12 23 0 0
BITMAP
0C10
0620
03E0
03C0
0180
0000
07F0
0C30
1810
3010
3000
3000
3800
3F80
1FE0
07F0
00F0
0070
4070
4060
4040
F180
7F00
ENDCHAR

STARTCHAR Scommaaccent
ENCODING 170
SWIDTH 556 0
DWIDTH 14 0
BBX 12 23 0 -6
BITMAP
07F0
0C30
1810
3010
3000
3000
3800
3F80
1FE0
07F0
00F0
0070
4070
4060
4040
F180
7F00
0000
0200
0C00
0C00
1800
3000
ENDCHAR

STARTCHAR Tcaron
ENCODING 171
SWIDTH 611 0
DWIDTH 15 0
BBX 15 23 1 0
BITMAP
0418
0230
0360
01C0
0000
0000
7FFE
C382
8382
8382
0380
0380
0780
0700
0700
0700
0700
0700
0F00
0E00
0E00
0E00
7FC0
ENDCHAR

STARTCHAR Zacute
ENCODING 172
SWIDTH 667 0
DWIDTH 17 0
BBX 17 23 0 0
BITMAP
001800
003800
007000
00C000
000000
000000
1FFF80
100F00
101E00
203C00
003C00
007800
00F000
01E000
03C000
03C000
078000
0F0000
1E0000
1E0100
3C0200
780600
FFFE00
ENDCHAR

STARTCHAR hyphen
ENCODING 173
SWIDTH 389 0
DWIDTH 10 0
BBX 9 3 0 5
BITMAP
7F80
7F00
FF00
ENDCHAR

STARTCHAR Zcaron
ENCODING 174
SWIDTH 667 0
DWIDTH 17 0
BBX 17 23 0 0
BITMAP
010600
019800
00D000
00E000
000000
000000
1FFF80
100F00
101E00
203C00
003C00
007800
00F000
01E000
03C000
03C000
078000
0F0000
1E0000
1E0100
3C0200
780600
FFFE00
ENDCHAR

STARTCHAR Zdotaccent
ENCODING 175
SWIDTH 667 0
DWIDTH 17 0
BBX 17 22 0 0
BITMAP
007000
007000
003000
000000
000000
1FFF80
100F00
101E00
101E00
003C00
007800
00F000
00F000
01E000
03C000
078000
0F0000
0F0000
1E0100
3C0100
780300
FFFE00
ENDCHAR

STARTCHAR degree
ENCODING 176
SWIDTH 396 0
DWIDTH 10 0
BBX 7 7 3 10
BITMAP
7C
C6
82
82
82
C6
7C
ENDCHAR

STARTCHAR aogonek
ENCODING 177
SWIDTH 556 0
DWIDTH 14 0
BBX 12 17 1 -5
BITMAP
07E0
08E0
30E0
30C0
71C0
60C0
62C0
E2C0
E580
E9B0
F1C0
E180
0100
0200
0600
0640
0380
ENDCHAR

STARTCHAR ogonek
ENCODING 178
SWIDTH 333 0
DWIDTH 8 0
BBX 5 5 -1 -5
BITMAP
20
40
C0
C8
70
ENDCHAR

STARTCHAR lslash
ENCODING 179
SWIDTH 333 0
DWIDTH 8 0
BBX 8 18 1 0
BITMAP
0E
3E
0E
0E
0C
0C
1D
1F
1C
18
78
D8
B8
30
70
72
7C
70
ENDCHAR

STARTCHAR acute
ENCODING 180
SWIDTH 333 0
DWIDTH 8 0
BBX 6 4 3 13
BITMAP
0C
1C
30
C0
ENDCHAR

STARTCHAR lcaron
ENCODING 181
SWIDTH 434 0
DWIDTH 11 0
BBX 11 19 2 0
BITMAP
0460
7CC0
1CC0
1C80
1900
1800
3800
3800
3800
3000
7000
7000
7000
6000
6000
E000
EC00
F000
E000
ENDCHAR

STARTCHAR sacute
ENCODING 182
SWIDTH 444 0
DWIDTH 11 0
BBX 9 18 1 0
BITMAP
0080
0180
0300
0600
0800
0000
0F80
3180
6080
6080
7800
7F00
3F80
0780
8380
8300
E600
FC00
ENDCHAR

STARTCHAR caron
ENCODING 183
SWIDTH 333 0
DWIDTH 8 0
BBX 8 4 2 13
BITMAP
C3
66
3C
38
ENDCHAR

STARTCHAR commaaccent
ENCODING 184
SWIDTH 333 0
DWIDTH 8 0
BBX 6 7 0 -8
BITMAP
04
38
38
30
30
60
C0
ENDCHAR

STARTCHAR scaron
ENCODING 185
SWIDTH 444 0
DWIDTH 11 0
BBX 11 18 1 0
BITMAP
1060
18C0
0F80
0F00
0600
0000
0F80
3180
6080
6080
7800
7F00
3F80
0780
8380
8300
E600
FC00
ENDCHAR

STARTCHAR scommaaccent
ENCODING 186
SWIDTH 444 0
DWIDTH 11 0
BBX 9 18 1 -6
BITMAP
0F80
3180
6080
6080
7800
7F00
3F80
0780
8380
8300
E600
FC00
0000
0800
3000
3000
2000
4000
ENDCHAR

STARTCHAR tcaron
ENCODING 187
SWIDTH 439 0
DWIDTH 11 0
BBX 11 19 1 0
BITMAP
0060
0060
02C0
0E80
0D80
1C00
1C00
FF80
1C00
1800
3800
3800
3800
3000
3000
7100
7200
7C00
7000
ENDCHAR

STARTCHAR zacute
ENCODING 188
SWIDTH 500 0
DWIDTH 13 0
BBX 11 18 1 0
BITMAP
0040
01C0
0380
0300
0C00
0000
3C20
7FC0
4F00
4100
0200
0400
0800
1000
2040
5E40
FFC0
8F80
ENDCHAR

STARTCHAR hungarumlaut
ENCODING 189
SWIDTH 333 0
DWIDTH 8 0
BBX 11 4 1 13
BITMAP
0CE0
1DC0
3380
C600
ENDCHAR

STARTCHAR zcaron
ENCODING 190
SWIDTH 500 0
DWIDTH 13 0
BBX 11 18 1 0
BITMAP
1020
0840
0DC0
0780
0700
0000
3C20
7FC0
4F00
4100
0200
0400
0800
1000
2040
5E40
FFC0
8F80
ENDCHAR

STARTCHAR zdotaccent
ENCODING 191
SWIDTH 500 0
DWIDTH 13 0
BBX 11 17 1 0
BITMAP
0700
0700
0700
0000
0000
3C20
7FC0
4F00
4100
0200
0400
0800
1000
2040
5E40
FFC0
8F80
ENDCHAR

STARTCHAR Racute
ENCODING 192
SWIDTH 722 0
DWIDTH 18 0
BBX 17 23 0 0
BITMAP
000C00
001800
003000
006000
008000
000000
3FFC00
0F0F00
0F0700
0E0700
0E0700
0E0F00
0E0E00
0F3800
1EE000
1CF000
1C7800
1C3800
1C3C00
1C1C00
3C1E00
3C0F00
FF0F80
ENDCHAR

STARTCHAR Aacute
ENCODING 193
SWIDTH 722 0
DWIDTH 18 0
BBX 18 22 -1 0
BITMAP
000700
000E00
001800
003000
000000
001800
003C00
003C00
005C00
00DC00
009C00
011C00
011E00
020E00
07FE00
040E00
0C0E00
180E00
100F00
300F00
300F00
FC3FC0
ENDCHAR

STARTCHAR Acircumflex
ENCODING 194
SWIDTH 722 0
DWIDTH 18 0
BBX 18 22 -1 0
BITMAP
001C00
003C00
006600
00C300
000000
001800
003C00
003C00
005C00
00DC00
009C00
011C00
011E00
020E00
07FE00
040E00
0C0E00
180E00
100F00
300F00
300F00
FC3FC0
ENDCHAR

STARTCHAR Abreve
ENCODING 195
SWIDTH 722 0
DWIDTH 18 0
BBX 18 22 -1 0
BITMAP
004180
006300
007E00
001C00
000000
001800
003C00
003C00
005C00
00DC00
009C00
011C00
011E00
020E00
07FE00
040E00
0C0E00
180E00
100F00
300F00
300F00
FC3FC0
ENDCHAR

STARTCHAR Adieresis
ENCODING 196
SWIDTH 722 0
DWIDTH 18 0
BBX 18 21 -1 0
BITMAP
00E700
00E700
006300
000000
001800
003800
007C00
005C00
00DC00
009C00
011C00
031C00
021C00
07FE00
040E00
080E00
180E00
100E00
300E00
300F00
FC3FC0
ENDCHAR

STARTCHAR Lacute
ENCODING 197
SWIDTH 611 0
DWIDTH 15 0
BBX 14 23 0 0
BITMAP
0020
0070
00E0
0180
0300
0000
3FC0
0F00
0E00
0E00
0E00
0E00
1E00
1C00
1C00
1C00
1C00
1C00
3C00
3804
380C
3818
FFF8
ENDCHAR

STARTCHAR Cacute
ENCODING 198
SWIDTH 685 0
DWIDTH 17 0
BBX 15 22 2 0
BITMAP
0038
0070
00E0
0180
0000
00F8
07FE
0C06
1802
3802
7000
7000
F000
E000
E000
E000
E000
F000
F004
780C
3FF0
0F80
ENDCHAR

STARTCHAR Ccedilla
ENCODING 199
SWIDTH 685 0
DWIDTH 17 0
BBX 15 23 2 -6
BITMAP
00F8
07FE
0C06
1806
3804
7000
7000
F000
E000
E000
E000
E000
E000
F000
7004
7818
3FE0
0380
0600
0780
0180
0180
1F00
ENDCHAR

STARTCHAR Ccaron
ENCODING 200
SWIDTH 685 0
DWIDTH 17 0
BBX 15 22 2 0
BITMAP
020C
0130
01E0
00C0
0000
00F8
07FE
0C06
1802
3802
7000
7000
F000
E000
E000
E000
E000
F000
F004
780C
3FF0
0F80
ENDCHAR

STARTCHAR Eacute
ENCODING 201
SWIDTH 611 0
DWIDTH 15 0
BBX 15 23 0 0
BITMAP
0030
0070
00E0
0180
0000
0000
3FFE
0E06
0E04
0E04
0E00
0E00
1E00
1C00
1FF0
1C00
1C00
1C00
3C00
3C04
3808
3818
FFF8
ENDCHAR

STARTCHAR Eogonek
ENCODING 202
SWIDTH 611 0
DWIDTH 15 0
BBX 15 22 0 -5
BITMAP
3FFE
0E04
0E04
0E04
0E00
1E00
1C00
1C00
1FF0
1C00
1C00
3C00
3800
3808
3808
3818
FFF8
0040
0080
0180
0190
00E0
ENDCHAR

STARTCHAR Edieresis
ENCODING 203
SWIDTH 611 0
DWIDTH 15 0
BBX 15 21 0 0
BITMAP
0738
0738
0210
0000
3FFE
0F06
0E04
0E04
0E00
0E00
0E00
1E00
1FF0
1C00
1C00
1C00
1C00
3C04
3808
3818
FFF8
ENDCHAR

STARTCHAR Ecaron
ENCODING 204
SWIDTH 611 0
DWIDTH 15 0
BBX 15 23 0 0
BITMAP
020C
0310
01B0
01E0
0000
0000
3FFE
0E06
0E04
0E04
0E00
0E00
1E00
1C00
1FF0
1C00
1C00
1C00
3C00
3C04
3808
3818
FFF8
ENDCHAR

STARTCHAR Iacute
ENCODING 205
SWIDTH 389 0
DWIDTH 10 0
BBX 10 23 0 0
BITMAP
0080
01C0
0380
0600
0C00
0000
3FC0
0F00
0F00
0E00
0E00
0E00
0E00
0E00
1E00
1C00
1C00
1C00
1C00
1C00
3C00
3C00
FF00
ENDCHAR

STARTCHAR Icircumflex
ENCODING 206
SWIDTH 389 0
DWIDTH 10 0
BBX 10 23 0 0
BITMAP
0300
0700
0D80
1880
3040
0000
3FC0
0F00
0F00
0E00
0E00
0E00
0E00
0E00
1E00
1C00
1C00
1C00
1C00
1C00
3C00
3C00
FF00
ENDCHAR

STARTCHAR Dcaron
ENCODING 207
SWIDTH 778 0
DWIDTH 19 0
BBX 18 23 0 0
BITMAP
010200
008C00
00D800
007000
006000
000000
7FFC00
0E0F00
0E0380
1E03C0
1E01C0
1C01C0
1C01C0
1C01C0
1C01C0
3C03C0
3C03C0
380380
380780
380700
380E00
781800
FFE000
ENDCHAR

STARTCHAR Dcroat
ENCODING 208
SWIDTH 778 0
DWIDTH 19 0
BBX 18 17 0 0
BITMAP
7FFC00
0E0F00
0E0380
1E03C0
1E01C0
1C01C0
1C01C0
1C01C0
7FE1C0
1C03C0
3C03C0
380380
380380
380700
380E00
781C00
FFF000
ENDCHAR

STARTCHAR Nacute
ENCODING 209
SWIDTH 778 0
DWIDTH 19 0
BBX 20 23 0 0
BITMAP
000400
000E00
001C00
003000
006000
000000
7E03F0
0F00C0
0F00C0
0F80C0
0B8080
0BC080
19E080
19E080
10F180
107180
107900
103D00
303D00
301F00
200F00
300F00
FC0600
ENDCHAR

STARTCHAR Ncaron
ENCODING 210
SWIDTH 778 0
DWIDTH 19 0
BBX 20 23 0 0
BITMAP
008100
004600
006C00
003800
003000
000000
7E03F0
0F00C0
0F00C0
0F80C0
0B8080
0BC080
19E080
19E080
10F180
107180
107900
103D00
303D00
301F00
200F00
300F00
FC0600
ENDCHAR

STARTCHAR Oacute
ENCODING 211
SWIDTH 833 0
DWIDTH 21 0
BBX 17 23 2 0
BITMAP
000800
001800
003800
006000
008000
000000
03F800
0E0E00
1C0700
380780
700380
700380
F00380
F00380
E00380
E00780
E00780
E00700
E00700
F00E00
701C00
3C3800
0FE000
ENDCHAR

STARTCHAR Ocircumflex
ENCODING 212
SWIDTH 833 0
DWIDTH 21 0
BBX 17 22 2 0
BITMAP
007000
00D000
019800
020800
000000
03F800
0E0E00
1C0700
380780
700380
700380
F00380
F00380
E00380
E00780
E00780
E00700
E00700
F00E00
701C00
3C3800
0FE000
ENDCHAR

STARTCHAR Ohungarumlaut
ENCODING 213
SWIDTH 833 0
DWIDTH 21 0
BBX 17 22 2 0
BITMAP
006700
00EE00
018C00
033000
000000
03F800
0E0E00
1C0700
380780
700380
700380
F00380
F00380
E00380
E00780
E00780
E00700
E00700
F00E00
701C00
3C3800
0FE000
ENDCHAR

STARTCHAR Odieresis
ENCODING 214
SWIDTH 833 0
DWIDTH 21 0
BBX 17 21 2 0
BITMAP
039C00
039C00
010800
000000
03F800
0E0E00
1C0700
380780
700380
700380
F00380
F00380
E00380
E00780
E00780
E00700
E00F00
F00E00
701C00
3C3800
0FC000
ENDCHAR

STARTCHAR multiply
ENCODING 215
SWIDTH 606 0
DWIDTH 15 0
BBX 11 11 2 3
BITMAP
2040
E0E0
71C0
3B80
1F00
0E00
1F00
3B80
F1C0
60E0
2040
ENDCHAR

STARTCHAR Rcaron
ENCODING 216
SWIDTH 722 0
DWIDTH 18 0
BBX 17 23 0 0
BITMAP
010600
018C00
00D800
007000
006000
000000
3FFC00
0F0F00
0F0700
0E0700
0E0700
0E0F00
0E0E00
0F3800
1EE000
1CF000
1C7800
1C3800
1C3C00
1C1C00
3C1E00
3C0F00
FF0F80
ENDCHAR

STARTCHAR Uring
ENCODING 217
SWIDTH 778 0
DWIDTH 19 0
BBX 19 23 1 0
BITMAP
007000
00D800
008800
00D800
007000
000000
FC1FE0
1C0780
1C0780
3C0700
380700
380700
380700
380700
380F00
780E00
700E00
700E00
701E00
703E00
786E00
3F9E00
1F1F80
ENDCHAR

STARTCHAR Uacute
ENCODING 218
SWIDTH 778 0
DWIDTH 19 0
BBX 19 23 1 0
BITMAP
000400
001C00
003800
003000
00C000
000000
FC1FE0
1C0780
1C0780
3C0700
380700
380700
380700
380F00
380E00
780E00
700E00
700E00
701E00
703E00
786C00
3F9E00
1F1F80
ENDCHAR

STARTCHAR Uhungarumlaut
ENCODING 219
SWIDTH 778 0
DWIDTH 19 0
BBX 19 22 1 0
BITMAP
006300
00E700
018C00
033000
000000
FC1FE0
1C0780
1C0780
3C0700
380700
380700
380700
380F00
380E00
780E00
700E00
700E00
701E00
703E00
787C00
3F9E00
1F1F80
ENDCHAR

STARTCHAR Udieresis
ENCODING 220
SWIDTH 778 0
DWIDTH 19 0
BBX 19 21 1 0
BITMAP
01CE00
01CE00
008400
000000
FC1FE0
1C0780
1C0780
3C0700
3C0700
380700
380700
380700
380F00
780E00
700E00
700E00
701E00
703E00
786E00
3FDE00
1F1F80
ENDCHAR

STARTCHAR Yacute
ENCODING 221
SWIDTH 611 0
DWIDTH 15 0
BBX 15 23 1 0
BITMAP
0010
0030
0070
00C0
0100
0000
7002
F806
3C0E
1C18
1E30
0E20
0E60
0E40
0780
0780
0780
0700
0700
0700
0F00
0F00
3FC0
ENDCHAR

STARTCHAR Tcommaaccent
ENCODING 222
SWIDTH 611 0
DWIDTH 15 0
BBX 15 23 1 -6
BITMAP
7FFE
C382
8382
8382
0380
0380
0780
0700
0700
0700
0700
0700
0F00
0E00
0E00
0E00
7FC0
0000
0600
0C00
0800
1800
3000
ENDCHAR

STARTCHAR germandbls
ENCODING 223
SWIDTH 556 0
DWIDTH 14 0
BBX 17 25 -3 -7
BITMAP
000F00
001380
006180
00E180
00E180
01C300
01C200
07C400
01CC00
018C00
038E00
038F00
038700
030300
070300
072200
072600
067C00
060000
0E0000
0C0000
0C0000
480000
700000
E00000
ENDCHAR

STARTCHAR racute
ENCODING 224
SWIDTH 389 0
DWIDTH 10 0
BBX 10 18 1 0
BITMAP
0080
01C0
0380
0600
0800
0000
19C0
7B80
BB80
3400
3400
3800
3000
7000
7000
6000
6000
C000
ENDCHAR

STARTCHAR aacute
ENCODING 225
SWIDTH 556 0
DWIDTH 14 0
BBX 12 18 1 0
BITMAP
0020
00E0
01C0
0300
0600
0000
07F0
0860
18E0
30E0
70E0
71C0
6140
E2C0
E5C0
E9D0
F1E0
6180
ENDCHAR

STARTCHAR acircumflex
ENCODING 226
SWIDTH 556 0
DWIDTH 14 0
BBX 12 18 1 0
BITMAP
0180
0380
06C0
0C60
1820
0000
07F0
0860
18E0
30E0
70E0
71C0
6140
E2C0
E5C0
E9D0
F1E0
6180
ENDCHAR

STARTCHAR abreve
ENCODING 227
SWIDTH 556 0
DWIDTH 14 0
BBX 12 17 1 0
BITMAP
0810
0C30
07E0
0380
0000
07F0
0860
18E0
30E0
70E0
71C0
6140
E2C0
E5C0
E9D0
F1E0
6180
ENDCHAR

STARTCHAR adieresis
ENCODING 228
SWIDTH 556 0
DWIDTH 14 0
BBX 12 16 1 0
BITMAP
0E70
0E70
0C20
0000
03F0
0C70
1860
30E0
70E0
70E0
7140
E2C0
E2C0
EDD0
F9E0
6180
ENDCHAR

STARTCHAR lacute
ENCODING 229
SWIDTH 333 0
DWIDTH 8 0
BBX 8 23 2 0
BITMAP
03
07
0E
38
04
7C
1C
1C
18
18
38
38
38
30
70
70
70
60
60
E0
EC
F0
E0
ENDCHAR

STARTCHAR cacute
ENCODING 230
SWIDTH 444 0
DWIDTH 11 0
BBX 10 17 1 0
BITMAP
00C0
01C0
0300
0C00
0000
03C0
0FC0
3840
7040
7000
6000
E000
E000
E080
E180
7E00
3800
ENDCHAR

STARTCHAR ccedilla
ENCODING 231
SWIDTH 444 0
DWIDTH 11 0
BBX 11 18 1 -6
BITMAP
03E0
0FC0
1840
3040
7000
7000
E000
E000
E000
E040
F180
7E00
3800
1000
3C00
0600
0600
7C00
ENDCHAR

STARTCHAR ccaron
ENCODING 232
SWIDTH 444 0
DWIDTH 11 0
BBX 11 17 1 0
BITMAP
1860
0CC0
0780
0700
0000
03C0
0FC0
3840
7040
7000
6000
E000
E000
E080
E180
7E00
3800
ENDCHAR

STARTCHAR eacute
ENCODING 233
SWIDTH 444 0
DWIDTH 11 0
BBX 10 18 1 0
BITMAP
0040
00C0
0180
0300
0C00
0000
07C0
18C0
30C0
71C0
7180
6E00
F000
E000
E000
E180
7E00
3800
ENDCHAR

STARTCHAR eogonek
ENCODING 234
SWIDTH 444 0
DWIDTH 11 0
BBX 10 16 1 -4
BITMAP
07C0
18C0
30C0
71C0
7180
6E00
F000
E000
E000
E180
FE00
3800
1000
3000
3200
1C00
ENDCHAR

STARTCHAR edieresis
ENCODING 235
SWIDTH 444 0
DWIDTH 11 0
BBX 11 16 1 0
BITMAP
1CE0
1CE0
0840
0000
07C0
18C0
30C0
71C0
7180
6E00
F000
E000
E000
E180
7E00
3800
ENDCHAR

STARTCHAR ecaron
ENCODING 236
SWIDTH 444 0
DWIDTH 11 0
BBX 12 18 1 0
BITMAP
1030
0860
0DC0
0780
0300
0000
07C0
18C0
30C0
71C0
7180
6E00
F000
E000
E000
E180
7E00
3800
ENDCHAR

STARTCHAR iacute
ENCODING 237
SWIDTH 333 0
DWIDTH 8 0
BBX 8 18 1 0
BITMAP
01
03
06
0C
10
00
1C
3C
DC
18
38
38
38
30
70
76
78
70
ENDCHAR

STARTCHAR icircumflex
ENCODING 238
SWIDTH 333 0
DWIDTH 8 0
BBX 8 18 1 0
BITMAP
0C
1E
3A
23
41
00
1C
3C
DC
18
38
38
38
30
70
76
78
70
ENDCHAR

STARTCHAR dcaron
ENCODING 239
SWIDTH 664 0
DWIDTH 17 0
BBX 17 18 1 0
BITMAP
003980
00FB00
003B00
003200
007400
007000
03F000
0CF000
386000
30E000
70E000
70E000
614000
E2C000
E2C000
E5D000
F9E000
F1C000
ENDCHAR

STARTCHAR dcroat
ENCODING 240
SWIDTH 556 0
DWIDTH 14 0
BBX 15 19 1 0
BITMAP
0008
00F8
0078
0030
07FE
0070
0070
07F0
18E0
3860
30E0
70E0
71E0
6140
E2C0
E5C0
EDD0
F9E0
6180
ENDCHAR

STARTCHAR nacute
ENCODING 241
SWIDTH 556 0
DWIDTH 14 0
BBX 12 18 1 0
BITMAP
0040
00E0
01C0
0300
0600
0000
3870
79F0
BB70
3460
3460
38E0
70E0
70C0
71C0
61D0
E1E0
E1C0
ENDCHAR

STARTCHAR ncaron
ENCODING 242
SWIDTH 556 0
DWIDTH 14 0
BBX 12 18 1 0
BITMAP
0810
0420
06C0
03C0
0380
0000
3870
79F0
BB70
3460
3460
38E0
70E0
70C0
71C0
61D0
E1E0
E1C0
ENDCHAR

STARTCHAR oacute
ENCODING 243
SWIDTH 556 0
DWIDTH 14 0
BBX 12 18 1 0
BITMAP
0020
0060
00C0
0380
0600
0000
07C0
18E0
3070
7070
7070
E070
E070
E0E0
E0E0
E0C0
7180
7E00
ENDCHAR

STARTCHAR ocircumflex
ENCODING 244
SWIDTH 556 0
DWIDTH 14 0
BBX 12 17 1 0
BITMAP
0380
0740
0C60
1820
0000
07C0
18E0
3070
7070
7070
E070
E070
E0E0
E0E0
E0C0
7180
7E00
ENDCHAR

STARTCHAR ohungarumlaut
ENCODING 245
SWIDTH 556 0
DWIDTH 14 0
BBX 14 17 1 0
BITMAP
039C
0738
0E70
18C0
0000
07C0
18E0
3070
7070
7070
E070
E070
E0E0
E0E0
E0C0
7180
7E00
ENDCHAR

STARTCHAR odieresis
ENCODING 246
SWIDTH 556 0
DWIDTH 14 0
BBX 11 16 1 0
BITMAP
0CE0
1CE0
0C60
0000
0F80
19E0
30E0
70E0
60E0
E0E0
E0E0
E0C0
E1C0
E180
7300
7C00
ENDCHAR

STARTCHAR divide
ENCODING 247
SWIDTH 606 0
DWIDTH 15 0
BBX 13 11 1 3
BITMAP
0700
0700
0700
0000
FFF8
FFF8
0000
0000
0700
0700
0700
ENDCHAR

STARTCHAR rcaron
ENCODING 248
SWIDTH 389 0
DWIDTH 10 0
BBX 11 17 1 0
BITMAP
18E0
0D80
0F00
0600
0000
19C0
7B80
BB80
3400
3400
3800
3000
7000
7000
6000
6000
C000
ENDCHAR

STARTCHAR uring
ENCODING 249
SWIDTH 556 0
DWIDTH 14 0
BBX 13 18 0 0
BITMAP
01C0
0360
0220
0360
01C0
0000
1C38
3C30
DC70
1870
1870
38E0
38A0
3160
72E0
74E8
78F0
70C0
ENDCHAR

STARTCHAR uacute
ENCODING 250
SWIDTH 556 0
DWIDTH 14 0
BBX 13 18 0 0
BITMAP
0020
0070
00E0
0180
0200
0000
1C38
3C30
DC70
1870
1870
38E0
38A0
3160
72E0
74D8
78E0
70C0
ENDCHAR

STARTCHAR uhungarumlaut
ENCODING 251
SWIDTH 556 0
DWIDTH 14 0
BBX 14 17 0 0
BITMAP
018C
039C
0630
0CC0
0000
1C38
3C30
DC70
1870
1870
38E0
38A0
3160
72E0
74D8
78E0
70C0
ENDCHAR

STARTCHAR udieresis
ENCODING 252
SWIDTH 556 0
DWIDTH 14 0
BBX 13 16 0 0
BITMAP
0E70
0E70
0420
0000
1C38
3C70
DC70
1860
18E0
3860
38E0
3140
72C0
74D8
79E0
70C0
ENDCHAR

STARTCHAR yacute
ENCODING 253
SWIDTH 556 0
DWIDTH 14 0
BBX 13 25 0 -7
BITMAP
0020
0070
00E0
0180
0300
0000
1818
7C38
DC38
1830
1870
1870
38E0
3860
3960
3AE0
3CC0
38C0
01C0
0180
0180
4300
C200
E400
7800
ENDCHAR

STARTCHAR tcommaaccent
ENCODING 254
SWIDTH 389 0
DWIDTH 10 0
BBX 9 23 1 -6
BITMAP
0200
0E00
0C00
1C00
1C00
FF80
1C00
1800
3800
3800
3800
3000
3000
7100
7200
7C00
7000
0000
1000
3000
6000
4000
C000
ENDCHAR

STARTCHAR dotaccent
ENCODING 255
SWIDTH 333 0
DWIDTH 8 0
BBX 3 3 4 14
BITMAP
E0
E0
E0
ENDCHAR
ENDFONT
